<?xml version="1.0" encoding="UTF-8"?>
<svg xmlns="http://www.w3.org/2000/svg" xmlns:xlink="http://www.w3.org/1999/xlink" width="100px" height="100px" viewBox="0 0 100 112" version="1.1">
<g id="surface1">
<path style=" stroke:none;fill-rule:nonzero;fill:rgb(63.137257%,47.450981%,86.274511%);fill-opacity:1;" d="M 99.554688 33.15625 C 99.554688 31.289062 99.152344 29.644531 98.34375 28.230469 C 97.546875 26.839844 96.355469 25.671875 94.757812 24.75 C 81.5625 17.175781 68.351562 9.625 55.160156 2.042969 C 51.605469 0 48.15625 0.0742188 44.628906 2.148438 C 39.375 5.230469 13.078125 20.230469 5.242188 24.746094 C 2.015625 26.605469 0.445312 29.453125 0.445312 33.152344 C 0.4375 48.382812 0.445312 63.617188 0.4375 78.847656 C 0.4375 80.671875 0.824219 82.289062 1.597656 83.679688 C 2.394531 85.113281 3.601562 86.3125 5.238281 87.253906 C 13.074219 91.769531 39.375 106.765625 44.625 109.851562 C 48.15625 111.925781 51.605469 112 55.164062 109.957031 C 68.355469 102.375 81.5625 94.824219 94.761719 87.25 C 96.398438 86.304688 97.605469 85.109375 98.402344 83.675781 C 99.175781 82.285156 99.5625 80.667969 99.5625 78.84375 C 99.5625 78.84375 99.5625 48.386719 99.554688 33.15625 "/>
<path style=" stroke:none;fill-rule:nonzero;fill:rgb(15.686275%,0%,40.784314%);fill-opacity:1;" d="M 50.152344 55.851562 L 1.597656 83.679688 C 2.394531 85.113281 3.601562 86.3125 5.238281 87.253906 C 13.074219 91.769531 39.375 106.765625 44.625 109.851562 C 48.15625 111.925781 51.605469 112 55.164062 109.957031 C 68.355469 102.375 81.5625 94.824219 94.761719 87.25 C 96.398438 86.304688 97.605469 85.109375 98.402344 83.675781 Z M 50.152344 55.851562 "/>
<path style=" stroke:none;fill-rule:nonzero;fill:rgb(22.352941%,0%,56.862748%);fill-opacity:1;" d="M 99.554688 33.15625 C 99.554688 31.289062 99.152344 29.644531 98.34375 28.230469 L 50.152344 55.851562 L 98.402344 83.675781 C 99.175781 82.285156 99.558594 80.667969 99.5625 78.84375 C 99.5625 78.84375 99.5625 48.386719 99.554688 33.15625 "/>
<path style=" stroke:none;fill-rule:nonzero;fill:rgb(100%,100%,100%);fill-opacity:1;" d="M 78.738281 45.449219 L 78.738281 50.648438 L 83.964844 50.648438 L 83.964844 45.449219 L 86.578125 45.449219 L 86.578125 50.648438 L 91.800781 50.648438 L 91.800781 53.25 L 86.578125 53.25 L 86.578125 58.453125 L 91.800781 58.453125 L 91.800781 61.054688 L 86.578125 61.054688 L 86.578125 66.253906 L 83.964844 66.253906 L 83.964844 61.054688 L 78.738281 61.054688 L 78.738281 66.253906 L 76.125 66.253906 L 76.125 61.054688 L 70.898438 61.054688 L 70.898438 58.453125 L 76.125 58.453125 L 76.125 53.25 L 70.898438 53.25 L 70.898438 50.648438 L 76.125 50.648438 L 76.125 45.449219 Z M 83.964844 53.25 L 78.738281 53.25 L 78.738281 58.453125 L 83.964844 58.453125 Z M 83.964844 53.25 "/>
<path style=" stroke:none;fill-rule:nonzero;fill:rgb(100%,100%,100%);fill-opacity:1;" d="M 50.257812 19.324219 C 63.886719 19.324219 75.789062 26.691406 82.160156 37.644531 L 82.097656 37.539062 L 66.0625 46.730469 C 62.902344 41.40625 57.113281 37.8125 50.46875 37.738281 L 50.257812 37.738281 C 40.125 37.738281 31.910156 45.914062 31.910156 56 C 31.910156 59.179688 32.742188 62.304688 34.332031 65.058594 C 37.492188 70.554688 43.4375 74.261719 50.257812 74.261719 C 57.121094 74.261719 63.097656 70.507812 66.246094 64.953125 L 66.167969 65.089844 L 82.179688 74.320312 C 75.875 85.183594 64.140625 92.527344 50.667969 92.671875 L 50.257812 92.675781 C 36.585938 92.675781 24.652344 85.261719 18.292969 74.25 C 15.191406 68.875 13.414062 62.644531 13.414062 56 C 13.414062 35.746094 29.910156 19.324219 50.257812 19.324219 Z M 50.257812 19.324219 "/>
</g>
</svg>
