<?xml version="1.0" encoding="UTF-8"?>
<svg xmlns="http://www.w3.org/2000/svg" xmlns:xlink="http://www.w3.org/1999/xlink" width="100px" height="100px" viewBox="0 0 100 50" version="1.1">
<g id="surface1">
<path style=" stroke:none;fill-rule:nonzero;fill:rgb(0%,0%,0%);fill-opacity:1;" d="M 7.882812 10.519531 L 22.652344 10.519531 C 26.984375 10.554688 30.128906 11.804688 32.074219 14.261719 C 34.023438 16.722656 34.664062 20.082031 34.003906 24.339844 C 33.746094 26.285156 33.175781 28.195312 32.296875 30.066406 C 31.4375 31.957031 30.242188 33.671875 28.769531 35.132812 C 26.929688 37.039062 24.964844 38.253906 22.871094 38.765625 C 20.777344 39.28125 18.609375 39.539062 16.367188 39.539062 L 9.753906 39.539062 L 7.660156 50 L 0 50 Z M 14.328125 16.796875 L 11.023438 33.316406 C 11.242188 33.351562 11.464844 33.371094 11.683594 33.371094 L 12.457031 33.371094 C 15.984375 33.40625 18.921875 33.058594 21.273438 32.324219 C 23.625 31.554688 25.203125 28.875 26.011719 24.285156 C 26.675781 20.429688 26.011719 18.207031 24.027344 17.621094 C 22.082031 17.035156 19.636719 16.757812 16.699219 16.796875 C 16.257812 16.832031 15.835938 16.851562 15.429688 16.851562 L 14.273438 16.851562 Z M 42.730469 0 L 50.335938 0 L 48.183594 10.519531 L 55.019531 10.519531 C 58.765625 10.589844 61.558594 11.363281 63.394531 12.832031 C 65.269531 14.296875 65.820312 17.089844 65.050781 21.199219 L 61.355469 39.539062 L 53.640625 39.539062 L 57.167969 22.027344 C 57.535156 20.191406 57.425781 18.886719 56.835938 18.117188 C 56.25 17.347656 54.984375 16.960938 53.035156 16.960938 L 46.917969 16.90625 L 42.398438 39.539062 L 34.792969 39.539062 Z M 73.214844 10.519531 L 87.984375 10.519531 C 92.320312 10.554688 95.460938 11.804688 97.410156 14.261719 C 99.355469 16.722656 100 20.082031 99.339844 24.339844 C 99.082031 26.285156 98.511719 28.195312 97.628906 30.066406 C 96.773438 31.957031 95.578125 33.671875 94.101562 35.132812 C 92.265625 37.039062 90.300781 38.253906 88.207031 38.765625 C 86.113281 39.28125 83.945312 39.539062 81.703125 39.539062 L 75.089844 39.539062 L 72.996094 50 L 65.335938 50 Z M 79.664062 16.796875 L 76.355469 33.316406 C 76.578125 33.351562 76.796875 33.371094 77.019531 33.371094 L 77.789062 33.371094 C 81.316406 33.40625 84.257812 33.058594 86.609375 32.324219 C 88.957031 31.554688 90.539062 28.875 91.347656 24.285156 C 92.007812 20.429688 91.347656 18.207031 89.363281 17.621094 C 87.414062 17.035156 84.972656 16.757812 82.035156 16.796875 C 81.59375 16.832031 81.171875 16.851562 80.765625 16.851562 L 79.609375 16.851562 Z M 79.664062 16.796875 "/>
</g>
</svg>
