<?xml version="1.0" encoding="UTF-8"?>
<svg xmlns="http://www.w3.org/2000/svg" xmlns:xlink="http://www.w3.org/1999/xlink" width="100px" height="100px" viewBox="0 0 100 63" version="1.1">
<defs>
<linearGradient id="linear0" gradientUnits="userSpaceOnUse" x1="1.511" y1="1.192" x2="1.657" y2="1.192" gradientTransform="matrix(21.560598,-12.587876,-12.73973,-21.303602,28.372645,83.126296)">
<stop offset="0" style="stop-color:rgb(56.470588%,61.176471%,66.27451%);stop-opacity:1;"/>
<stop offset="1" style="stop-color:rgb(92.941176%,92.941176%,93.333333%);stop-opacity:1;"/>
</linearGradient>
<linearGradient id="linear1" gradientUnits="userSpaceOnUse" x1="0.981" y1="-9.224" x2="1.127" y2="-9.224" gradientTransform="matrix(17.348163,0,0,-17.141378,28.816866,-154.02795)">
<stop offset="0" style="stop-color:rgb(57.647059%,62.352941%,67.058824%);stop-opacity:1;"/>
<stop offset="1" style="stop-color:rgb(86.27451%,87.058824%,88.235294%);stop-opacity:1;"/>
</linearGradient>
<radialGradient id="radial0" gradientUnits="userSpaceOnUse" cx="1.935" cy="2.23" fx="1.935" fy="2.23" r="0.146" gradientTransform="matrix(-22.118477,-3.282829,-6.719531,43.709641,116.388372,-75.573746)">
<stop offset="0" style="stop-color:rgb(93.333333%,20.784314%,17.254902%);stop-opacity:1;"/>
<stop offset="1" style="stop-color:rgb(66.27451%,11.372549%,13.333333%);stop-opacity:1;"/>
</radialGradient>
</defs>
<g id="surface1">
<path style=" stroke:none;fill-rule:nonzero;fill:url(#linear0);" d="M 64.296875 20.0625 L 55.59375 22.878906 L 48.011719 26.1875 L 45.894531 26.742188 C 45.355469 27.253906 44.792969 27.765625 44.167969 28.277344 C 43.5 28.855469 42.871094 29.367188 42.398438 29.75 C 41.855469 30.175781 41.078125 30.945312 40.667969 31.4375 C 40.066406 32.183594 39.589844 32.972656 39.394531 33.570312 C 39.027344 34.660156 39.199219 35.769531 39.914062 36.792969 C 40.800781 38.09375 42.589844 39.417969 44.664062 40.3125 C 45.722656 40.785156 47.515625 41.359375 48.855469 41.703125 C 51.078125 42.257812 55.398438 42.875 57.777344 42.960938 C 58.25 42.980469 58.898438 42.980469 58.921875 42.960938 C 58.964844 42.917969 59.351562 42.234375 59.761719 41.359375 C 61.230469 38.414062 62.269531 35.640625 62.851562 33.292969 C 63.195312 31.863281 63.457031 29.964844 63.652344 27.703125 C 63.695312 27.0625 63.714844 24.949219 63.671875 24.242188 C 63.605469 23.070312 63.5 22.132812 63.347656 21.191406 C 63.328125 21.0625 63.304688 20.9375 63.328125 20.9375 C 63.347656 20.914062 63.433594 20.894531 64.515625 20.59375 Z M 62.3125 21.214844 C 62.398438 21.214844 62.59375 23.21875 62.65625 24.480469 C 62.679688 24.734375 62.65625 24.925781 62.65625 24.925781 C 62.613281 24.925781 61.554688 24.308594 60.777344 23.839844 C 60.128906 23.433594 58.878906 22.601562 58.683594 22.453125 C 58.617188 22.410156 58.617188 22.410156 59.15625 22.214844 C 60.066406 21.894531 62.226562 21.214844 62.3125 21.214844 Z M 57.863281 22.664062 C 57.925781 22.664062 58.078125 22.75 58.445312 22.964844 C 59.804688 23.796875 61.640625 24.820312 62.441406 25.160156 C 62.679688 25.269531 62.699219 25.226562 62.160156 25.609375 C 60.972656 26.421875 59.460938 27.210938 57.644531 28 C 57.320312 28.148438 57.0625 28.257812 57.042969 28.257812 C 57.019531 28.257812 57.0625 28.085938 57.128906 27.894531 C 57.558594 26.269531 57.820312 24.628906 57.839844 23.328125 C 57.796875 22.664062 57.796875 22.664062 57.863281 22.664062 Z M 56.953125 23.007812 C 57 23.046875 56.976562 24.5 56.910156 24.90625 C 56.804688 25.84375 56.609375 26.742188 56.308594 27.742188 C 56.242188 27.980469 56.175781 28.191406 56.15625 28.191406 C 56.132812 28.234375 55.226562 27.359375 54.925781 27.019531 C 54.40625 26.441406 54.015625 25.84375 53.714844 25.269531 C 53.5625 24.96875 53.328125 24.394531 53.347656 24.394531 C 53.457031 24.308594 56.933594 22.984375 56.953125 23.007812 Z M 52.65625 24.671875 C 52.699219 24.691406 52.742188 24.796875 52.765625 24.90625 C 52.980469 25.480469 53.457031 26.3125 53.867188 26.828125 C 54.320312 27.402344 54.902344 28.042969 55.378906 28.449219 C 55.53125 28.578125 55.679688 28.703125 55.703125 28.726562 C 55.746094 28.769531 55.746094 28.769531 54.6875 29.152344 C 53.433594 29.621094 52.09375 30.089844 50.539062 30.582031 C 50.171875 30.710938 49.804688 30.816406 49.4375 30.945312 C 49.375 30.964844 49.394531 30.921875 49.566406 30.667969 C 50.34375 29.472656 51.511719 27.144531 52.160156 25.480469 C 52.269531 25.203125 52.375 24.90625 52.398438 24.839844 C 52.417969 24.757812 52.460938 24.714844 52.546875 24.671875 C 52.59375 24.691406 52.636719 24.671875 52.65625 24.671875 Z M 51.339844 25.203125 C 51.359375 25.226562 51.015625 25.910156 50.691406 26.546875 C 50.042969 27.785156 49.351562 28.980469 48.421875 30.453125 C 48.273438 30.710938 48.121094 30.945312 48.097656 30.964844 C 48.054688 31.007812 48.054688 31.007812 47.949219 30.796875 C 47.730469 30.367188 47.539062 29.792969 47.453125 29.28125 C 47.34375 28.769531 47.363281 27.894531 47.496094 27.339844 C 47.582031 26.933594 47.582031 26.933594 47.773438 26.847656 C 48.574219 26.441406 51.296875 25.183594 51.339844 25.203125 Z M 62.679688 25.671875 L 62.679688 25.953125 C 62.679688 27.402344 62.527344 29.386719 62.289062 30.839844 C 62.246094 31.09375 62.226562 31.308594 62.203125 31.308594 C 62.203125 31.308594 62.007812 31.265625 61.792969 31.203125 C 60.800781 30.902344 59.742188 30.453125 58.769531 29.921875 C 58.121094 29.578125 57.191406 29.003906 57.234375 28.980469 C 57.234375 28.980469 57.515625 28.832031 57.839844 28.660156 C 59.136719 28 60.367188 27.273438 61.449219 26.570312 C 61.859375 26.3125 62.460938 25.867188 62.59375 25.757812 Z M 46.371094 27.59375 C 46.394531 27.59375 46.394531 27.636719 46.351562 27.871094 C 46.328125 28.042969 46.285156 28.363281 46.285156 28.578125 C 46.242188 29.515625 46.394531 30.21875 46.867188 31.179688 C 46.996094 31.4375 47.105469 31.671875 47.105469 31.671875 C 47.0625 31.714844 42.699219 32.972656 41.339844 33.335938 C 40.929688 33.441406 40.582031 33.546875 40.539062 33.546875 C 40.496094 33.570312 40.496094 33.546875 40.496094 33.441406 C 40.648438 32.480469 41.382812 31.242188 42.417969 30.175781 C 43.109375 29.472656 43.648438 29.066406 44.578125 28.535156 C 45.25 28.191406 46.261719 27.617188 46.371094 27.59375 C 46.351562 27.59375 46.351562 27.59375 46.371094 27.59375 Z M 56.632812 29.410156 C 56.632812 29.410156 56.804688 29.492188 56.976562 29.601562 C 58.378906 30.410156 60.347656 31.160156 62.007812 31.542969 L 62.160156 31.585938 L 61.945312 31.691406 C 61.058594 32.183594 58.1875 33.355469 55.25 34.445312 C 54.816406 34.59375 54.40625 34.765625 54.320312 34.785156 C 54.234375 34.828125 54.167969 34.828125 54.167969 34.828125 C 54.167969 34.828125 54.277344 34.59375 54.429688 34.316406 C 55.25 32.800781 56.070312 30.945312 56.5 29.664062 C 56.585938 29.515625 56.632812 29.410156 56.632812 29.410156 Z M 55.59375 29.75 C 55.59375 29.75 55.550781 29.898438 55.484375 30.046875 C 54.902344 31.414062 54.167969 32.910156 53.195312 34.59375 C 52.960938 35.019531 52.742188 35.363281 52.742188 35.363281 C 52.742188 35.363281 52.546875 35.257812 52.3125 35.105469 C 50.90625 34.253906 49.675781 33.230469 48.875 32.203125 L 48.769531 32.054688 L 49.375 31.882812 C 51.511719 31.308594 53.347656 30.6875 55.164062 29.921875 C 55.355469 29.835938 55.574219 29.75 55.59375 29.75 Z M 62.09375 31.992188 C 62.09375 32.140625 61.769531 33.484375 61.492188 34.445312 C 61.253906 35.257812 61.058594 35.894531 60.691406 37.027344 C 60.539062 37.519531 60.390625 37.921875 60.390625 37.921875 C 60.390625 37.921875 60.347656 37.921875 60.300781 37.902344 C 58.359375 37.5625 56.585938 37.070312 54.945312 36.410156 C 54.492188 36.214844 53.824219 35.9375 53.78125 35.894531 C 53.757812 35.875 54.167969 35.703125 54.664062 35.492188 C 57.667969 34.1875 60.757812 32.738281 61.835938 32.097656 C 61.964844 32.035156 62.074219 31.992188 62.09375 31.992188 Z M 47.085938 32.503906 C 47.105469 32.523438 46.261719 33.699219 45.097656 35.320312 C 44.6875 35.894531 44.210938 36.558594 44.039062 36.792969 C 43.867188 37.046875 43.585938 37.433594 43.433594 37.667969 L 43.152344 38.09375 L 42.851562 37.839844 C 42.503906 37.5625 41.902344 36.941406 41.621094 36.601562 C 41.058594 35.894531 40.667969 35.171875 40.519531 34.507812 C 40.453125 34.1875 40.453125 34.039062 40.519531 34.019531 C 40.625 33.996094 42.375 33.589844 44.015625 33.207031 C 44.925781 32.992188 45.984375 32.757812 46.371094 32.652344 C 46.761719 32.566406 47.0625 32.503906 47.085938 32.503906 Z M 47.925781 32.824219 L 48.140625 33.058594 C 49.09375 34.105469 50.066406 34.871094 51.230469 35.554688 C 51.445312 35.660156 51.597656 35.769531 51.578125 35.789062 C 51.535156 35.832031 47.515625 37.242188 45.636719 37.859375 C 44.601562 38.222656 43.734375 38.519531 43.714844 38.519531 L 43.585938 38.4375 L 43.476562 38.351562 L 43.671875 38.074219 C 44.296875 37.199219 45.074219 36.214844 46.761719 34.210938 Z M 53.175781 36.535156 C 53.175781 36.535156 53.476562 36.644531 53.824219 36.769531 C 54.6875 37.089844 55.355469 37.285156 56.265625 37.519531 C 57.386719 37.796875 59.007812 38.074219 59.957031 38.160156 C 60.109375 38.179688 60.171875 38.179688 60.152344 38.203125 C 60.109375 38.222656 59.136719 38.542969 58.421875 38.777344 C 57.300781 39.117188 53.84375 40.144531 51.015625 40.933594 C 50.496094 41.082031 50.042969 41.210938 50.023438 41.210938 C 49.957031 41.230469 49.742188 41.167969 49.742188 41.144531 C 49.742188 41.125 49.890625 40.933594 50.085938 40.71875 C 51.035156 39.609375 51.964844 38.351562 52.765625 37.175781 C 52.980469 36.792969 53.175781 36.535156 53.175781 36.535156 Z M 52.007812 36.558594 C 52.007812 36.558594 51.554688 37.304688 50.734375 38.585938 C 50.390625 39.117188 50 39.738281 49.847656 39.953125 C 49.71875 40.164062 49.523438 40.484375 49.417969 40.675781 L 49.222656 41.019531 L 49.113281 40.996094 C 48.875 40.933594 47.214844 40.355469 46.78125 40.1875 C 46.242188 39.972656 45.679688 39.714844 45.25 39.480469 C 44.730469 39.203125 44.058594 38.777344 44.125 38.777344 C 44.148438 38.777344 45.03125 38.519531 46.132812 38.242188 C 49.007812 37.476562 50.605469 37.027344 51.664062 36.6875 C 51.835938 36.601562 52.007812 36.558594 52.007812 36.558594 Z M 60.195312 38.457031 C 60.238281 38.519531 59.15625 41.445312 58.769531 42.363281 C 58.683594 42.578125 58.660156 42.617188 58.597656 42.617188 C 58.488281 42.617188 56.933594 42.40625 56.003906 42.257812 C 54.363281 42 51.621094 41.53125 50.929688 41.382812 L 50.777344 41.339844 L 51.75 41.125 C 53.867188 40.65625 54.859375 40.398438 55.898438 40.101562 C 57.191406 39.714844 58.464844 39.226562 59.761719 38.628906 C 59.980469 38.542969 60.152344 38.457031 60.195312 38.457031 Z M 60.195312 38.457031 "/>
<path style=" stroke:none;fill-rule:nonzero;fill:url(#linear1);" d="M 55.3125 0.0195312 C 55.164062 0 52.828125 0.832031 51.316406 1.429688 C 49.289062 2.242188 47.710938 3.03125 46.738281 3.714844 C 46.371094 3.96875 45.917969 4.417969 45.851562 4.589844 C 45.832031 4.652344 45.808594 4.738281 45.808594 4.800781 L 46.695312 5.632812 L 48.789062 6.296875 L 53.78125 7.171875 L 59.480469 8.132812 L 59.546875 7.640625 L 59.503906 7.640625 L 58.746094 7.535156 L 58.597656 7.277344 C 57.820312 5.933594 56.953125 4.246094 56.457031 3.117188 C 56.070312 2.242188 55.703125 1.214844 55.507812 0.492188 C 55.398438 0.0429688 55.378906 0.0195312 55.3125 0.0195312 Z M 55.207031 0.339844 C 55.226562 0.339844 55.25 0.535156 55.269531 0.746094 C 55.378906 1.664062 55.59375 2.539062 55.917969 3.480469 C 56.15625 4.203125 56.15625 4.160156 55.875 4.078125 C 55.207031 3.882812 52.203125 3.371094 50.023438 3.074219 C 49.675781 3.03125 49.375 2.988281 49.375 2.964844 C 49.351562 2.945312 50.949219 2.113281 51.640625 1.792969 C 52.546875 1.386719 55.03125 0.382812 55.207031 0.339844 Z M 48.855469 3.265625 L 49.113281 3.351562 C 50.519531 3.820312 54.015625 4.480469 55.960938 4.632812 C 56.175781 4.652344 56.371094 4.671875 56.371094 4.671875 C 56.371094 4.671875 56.199219 4.78125 55.960938 4.886719 C 55.03125 5.355469 53.996094 5.910156 53.28125 6.359375 C 53.066406 6.488281 52.871094 6.59375 52.851562 6.59375 C 52.828125 6.59375 52.679688 6.574219 52.546875 6.550781 L 52.289062 6.507812 L 51.640625 5.867188 C 50.476562 4.757812 49.566406 3.90625 49.222656 3.5625 Z M 48.597656 3.457031 L 49.523438 4.609375 C 50.023438 5.25 50.539062 5.847656 50.648438 5.996094 C 50.757812 6.125 50.84375 6.253906 50.84375 6.253906 C 50.820312 6.273438 49.503906 6.019531 48.8125 5.867188 C 48.097656 5.699219 47.796875 5.632812 47.363281 5.484375 L 46.996094 5.378906 L 46.996094 5.292969 C 46.996094 4.867188 47.558594 4.203125 48.507812 3.542969 Z M 56.480469 5.015625 C 56.5 5.015625 56.542969 5.078125 56.609375 5.25 C 56.824219 5.742188 57.539062 7.042969 57.710938 7.296875 C 57.753906 7.382812 57.863281 7.382812 56.933594 7.234375 C 54.707031 6.871094 53.996094 6.765625 53.996094 6.742188 C 53.996094 6.742188 54.0625 6.703125 54.148438 6.636719 C 54.839844 6.253906 55.53125 5.785156 56.15625 5.269531 C 56.308594 5.144531 56.4375 5.035156 56.480469 5.015625 C 56.457031 5.015625 56.480469 5.015625 56.480469 5.015625 Z M 56.480469 5.015625 "/>
<path style=" stroke:none;fill-rule:nonzero;fill:url(#radial0);" d="M 45.894531 4.480469 C 45.894531 4.480469 45.746094 4.714844 45.894531 5.058594 C 45.984375 5.269531 46.242188 5.527344 46.523438 5.785156 C 46.523438 5.785156 49.460938 8.601562 49.804688 9.007812 C 51.425781 10.863281 52.136719 12.675781 52.203125 15.171875 C 52.246094 16.796875 51.945312 18.203125 51.167969 19.847656 C 49.804688 22.792969 46.910156 26.058594 42.460938 29.664062 L 43.109375 29.453125 C 43.519531 29.132812 44.101562 28.8125 45.441406 28.085938 C 48.554688 26.398438 52.03125 24.863281 56.308594 23.285156 C 62.460938 21 72.59375 18.3125 78.359375 17.4375 L 78.964844 17.351562 L 78.878906 17.203125 C 78.359375 16.390625 77.992188 15.898438 77.558594 15.367188 C 76.308594 13.808594 74.773438 12.570312 72.894531 11.523438 C 70.324219 10.09375 66.976562 8.984375 62.742188 8.152344 C 61.945312 8.003906 60.195312 7.703125 58.769531 7.492188 C 55.746094 7.019531 53.800781 6.703125 51.664062 6.339844 C 50.886719 6.210938 49.742188 6.019531 48.984375 5.847656 C 48.597656 5.761719 47.839844 5.589844 47.234375 5.378906 C 46.71875 5.230469 46.046875 5.035156 45.894531 4.480469 Z M 47.601562 6.125 C 47.601562 6.125 47.710938 6.167969 47.863281 6.210938 C 48.121094 6.296875 48.445312 6.402344 48.8125 6.488281 C 49.09375 6.574219 49.394531 6.636719 49.675781 6.722656 C 50.066406 6.828125 50.410156 6.914062 50.410156 6.914062 C 50.453125 6.957031 51.125 9.070312 51.339844 9.859375 C 51.425781 10.160156 51.492188 10.4375 51.492188 10.4375 C 51.492188 10.4375 51.402344 10.328125 51.316406 10.179688 C 50.539062 8.835938 49.332031 7.492188 47.925781 6.382812 C 47.730469 6.230469 47.601562 6.125 47.601562 6.125 Z M 50.84375 7 C 50.886719 7 51.015625 7.019531 51.1875 7.0625 C 52.3125 7.320312 54.320312 7.683594 55.59375 7.894531 C 55.808594 7.9375 55.984375 7.960938 55.984375 7.980469 C 55.984375 8.003906 55.898438 8.046875 55.808594 8.089844 C 55.59375 8.195312 54.707031 8.707031 54.429688 8.898438 C 53.695312 9.390625 53.046875 9.902344 52.570312 10.371094 L 52.226562 10.714844 C 52.226562 10.714844 52.179688 10.605469 52.160156 10.457031 C 51.921875 9.5625 51.425781 8.214844 50.972656 7.277344 C 50.886719 7.148438 50.820312 7 50.84375 7 C 50.820312 7 50.820312 7 50.84375 7 Z M 56.523438 8.066406 C 56.566406 8.089844 56.632812 8.300781 56.761719 8.792969 C 57 9.730469 57.105469 10.796875 57.085938 11.78125 C 57.0625 12.058594 57.0625 12.3125 57.042969 12.335938 L 57.019531 12.398438 L 56.675781 12.292969 C 55.960938 12.078125 54.816406 11.738281 53.84375 11.460938 C 53.28125 11.3125 52.828125 11.183594 52.828125 11.160156 C 52.828125 11.117188 53.648438 10.308594 53.996094 10.007812 C 54.664062 9.433594 56.480469 8.046875 56.523438 8.066406 Z M 56.976562 8.132812 C 57 8.109375 59.699219 8.578125 60.929688 8.8125 C 61.835938 8.984375 63.175781 9.261719 63.261719 9.304688 C 63.304688 9.328125 63.152344 9.390625 62.722656 9.582031 C 60.992188 10.351562 59.699219 11.054688 58.402344 11.886719 C 58.054688 12.101562 57.777344 12.292969 57.777344 12.292969 C 57.777344 12.292969 57.753906 12.101562 57.753906 11.886719 C 57.753906 10.648438 57.496094 9.410156 57.042969 8.34375 C 57.019531 8.238281 56.976562 8.152344 56.976562 8.132812 Z M 63.972656 9.496094 C 63.996094 9.519531 63.910156 10.050781 63.824219 10.351562 C 63.585938 11.3125 62.9375 12.761719 62.160156 14.105469 C 62.03125 14.339844 61.902344 14.535156 61.878906 14.554688 C 61.859375 14.554688 61.683594 14.46875 61.492188 14.339844 C 60.734375 13.894531 59.847656 13.488281 58.921875 13.105469 C 58.660156 12.996094 58.421875 12.910156 58.421875 12.890625 C 58.378906 12.847656 60.496094 11.460938 61.621094 10.796875 C 62.503906 10.265625 63.953125 9.476562 63.972656 9.496094 Z M 64.472656 9.582031 C 64.535156 9.582031 65.722656 9.902344 66.351562 10.09375 C 67.90625 10.542969 69.675781 11.183594 70.820312 11.714844 L 71.296875 11.929688 L 70.949219 12.015625 C 68.121094 12.65625 65.703125 13.402344 63.371094 14.339844 C 63.175781 14.425781 63.003906 14.492188 63.003906 14.492188 C 62.980469 14.492188 63.046875 14.339844 63.132812 14.148438 C 63.84375 12.675781 64.296875 11.140625 64.40625 9.816406 C 64.449219 9.6875 64.472656 9.582031 64.472656 9.582031 Z M 52.546875 12.292969 C 52.570312 12.269531 53.476562 12.484375 53.972656 12.632812 C 54.730469 12.847656 56.308594 13.359375 56.308594 13.402344 C 56.308594 13.402344 56.132812 13.550781 55.917969 13.742188 C 55.054688 14.449219 54.234375 15.195312 53.238281 16.15625 C 52.9375 16.433594 52.699219 16.667969 52.679688 16.667969 C 52.65625 16.667969 52.65625 16.625 52.65625 16.582031 C 52.808594 15.492188 52.765625 14.085938 52.570312 12.65625 C 52.570312 12.441406 52.546875 12.292969 52.546875 12.292969 Z M 71.773438 12.3125 C 71.792969 12.335938 71.339844 12.996094 71.082031 13.382812 C 70.691406 13.9375 70.109375 14.683594 68.792969 16.304688 C 68.101562 17.160156 67.324219 18.140625 67.0625 18.460938 C 66.804688 18.78125 66.589844 19.058594 66.566406 19.058594 C 66.566406 19.058594 66.480469 18.953125 66.371094 18.800781 C 65.636719 17.714844 64.753906 16.753906 63.714844 15.898438 C 63.519531 15.730469 63.304688 15.558594 63.21875 15.515625 C 63.152344 15.472656 63.089844 15.410156 63.089844 15.410156 C 63.089844 15.386719 64.210938 14.917969 65.054688 14.578125 C 66.542969 13.980469 68.574219 13.253906 70.085938 12.804688 C 70.90625 12.527344 71.773438 12.292969 71.773438 12.3125 Z M 72.289062 12.441406 C 72.3125 12.441406 72.484375 12.507812 72.65625 12.632812 C 74.253906 13.53125 75.832031 14.703125 77.0625 15.898438 C 77.410156 16.242188 78.273438 17.117188 78.25 17.136719 C 78.25 17.136719 77.949219 17.160156 77.601562 17.179688 C 74.839844 17.394531 71.296875 17.96875 67.882812 18.78125 C 67.644531 18.824219 67.453125 18.886719 67.429688 18.886719 C 67.410156 18.886719 67.667969 18.632812 67.992188 18.332031 C 70 16.433594 70.90625 15.214844 71.988281 13.082031 C 72.140625 12.71875 72.269531 12.464844 72.289062 12.441406 C 72.269531 12.441406 72.269531 12.441406 72.289062 12.441406 Z M 57.625 13.914062 C 57.710938 13.9375 58.574219 14.339844 59.222656 14.640625 C 59.804688 14.9375 60.714844 15.410156 60.757812 15.429688 C 60.757812 15.429688 60.453125 15.601562 60.066406 15.792969 C 58.832031 16.410156 57.777344 16.988281 56.652344 17.648438 C 56.328125 17.839844 56.070312 17.992188 56.070312 17.992188 C 56.046875 17.992188 56.046875 17.96875 56.21875 17.648438 C 56.804688 16.582031 57.277344 15.300781 57.558594 14.0625 C 57.582031 13.980469 57.601562 13.914062 57.625 13.914062 Z M 56.78125 14.085938 C 56.804688 14.105469 56.585938 14.894531 56.4375 15.34375 C 56.175781 16.175781 55.703125 17.203125 55.269531 17.992188 C 55.164062 18.183594 55.011719 18.4375 54.925781 18.589844 L 54.75 18.84375 L 54.382812 18.503906 C 53.953125 18.097656 53.605469 17.839844 53.152344 17.605469 C 52.980469 17.519531 52.828125 17.4375 52.828125 17.414062 C 52.828125 17.371094 53.953125 16.347656 54.816406 15.621094 C 55.441406 15.089844 56.761719 14.0625 56.78125 14.085938 Z M 62.007812 16.199219 L 62.332031 16.410156 C 63.066406 16.882812 63.929688 17.519531 64.601562 18.078125 C 64.96875 18.375 65.703125 19.015625 65.855469 19.1875 L 65.941406 19.269531 L 65.398438 19.421875 C 62.375 20.253906 60.066406 20.980469 57.34375 21.960938 C 57.042969 22.066406 56.78125 22.152344 56.761719 22.152344 C 56.71875 22.152344 56.695312 22.195312 57.363281 21.578125 C 59.09375 19.996094 60.648438 18.246094 61.792969 16.5625 Z M 60.625 16.539062 C 60.648438 16.5625 59.742188 17.796875 59.199219 18.523438 C 58.554688 19.378906 57.410156 20.785156 56.632812 21.703125 C 56.308594 22.089844 56.027344 22.410156 56.003906 22.410156 C 55.984375 22.410156 55.984375 22.324219 55.984375 22.171875 C 55.984375 21.382812 55.789062 20.550781 55.421875 19.828125 C 55.269531 19.527344 55.25 19.464844 55.269531 19.421875 C 55.398438 19.3125 57.300781 18.226562 58.53125 17.585938 C 59.332031 17.160156 60.605469 16.519531 60.625 16.539062 Z M 52.3125 18.546875 C 52.332031 18.546875 52.484375 18.632812 52.65625 18.714844 C 53.066406 18.953125 53.457031 19.207031 53.78125 19.464844 C 53.800781 19.484375 53.628906 19.613281 53.390625 19.785156 C 52.765625 20.230469 51.8125 20.9375 51.273438 21.363281 C 50.691406 21.8125 50.667969 21.832031 50.734375 21.726562 C 51.167969 21.0625 51.382812 20.703125 51.621094 20.230469 C 51.8125 19.804688 52.03125 19.3125 52.179688 18.867188 C 52.226562 18.695312 52.289062 18.546875 52.3125 18.546875 Z M 54.535156 20.273438 C 54.578125 20.273438 54.601562 20.316406 54.796875 20.59375 C 55.164062 21.148438 55.464844 21.894531 55.53125 22.492188 L 55.550781 22.621094 L 54.644531 22.964844 C 53.023438 23.582031 51.535156 24.203125 50.539062 24.648438 C 50.257812 24.777344 49.761719 25.011719 49.4375 25.160156 C 49.113281 25.332031 48.855469 25.4375 48.855469 25.4375 C 48.855469 25.4375 49.050781 25.289062 49.308594 25.097656 C 51.273438 23.6875 52.980469 22.132812 54.253906 20.59375 C 54.382812 20.421875 54.515625 20.273438 54.535156 20.273438 Z M 53.519531 20.507812 C 53.542969 20.53125 52.785156 21.382812 52.289062 21.894531 C 51.015625 23.175781 49.761719 24.179688 48.207031 25.160156 C 48.011719 25.289062 47.839844 25.394531 47.820312 25.417969 C 47.773438 25.4375 47.839844 25.375 48.507812 24.648438 C 48.941406 24.179688 49.265625 23.796875 49.65625 23.328125 C 49.914062 23.007812 49.957031 22.964844 50.300781 22.707031 C 51.253906 21.980469 53.476562 20.488281 53.519531 20.507812 Z M 53.519531 20.507812 "/>
<path style=" stroke:none;fill-rule:nonzero;fill:rgb(13.725491%,12.156863%,12.156863%);fill-opacity:1;" d="M 25.011719 47.441406 C 24.878906 47.441406 24.773438 47.464844 24.644531 47.464844 C 22.179688 47.589844 20.539062 48.660156 19.566406 50.75 C 18.746094 52.628906 18.832031 55.105469 19.566406 56.980469 C 20.429688 58.839844 21.835938 59.820312 24.167969 60.183594 C 24.664062 60.269531 24.988281 60.523438 25.960938 61.632812 L 27.148438 63 L 29.285156 63 L 27.859375 61.589844 C 27.082031 60.824219 26.4375 60.140625 26.4375 60.078125 C 26.4375 60.011719 26.738281 59.882812 27.105469 59.777344 C 28.316406 59.414062 29.308594 58.496094 30 57.089844 C 30.5625 55.957031 30.648438 55.617188 30.734375 54.207031 C 30.949219 50.023438 28.726562 47.421875 25.011719 47.441406 Z M 26.890625 58.367188 C 25.851562 58.859375 24.339844 58.964844 23.347656 58.605469 C 22.332031 58.242188 21.339844 57.195312 20.882812 56 C 20.386719 54.699219 20.453125 52.308594 21.035156 51.242188 C 21.941406 49.535156 23.152344 48.742188 24.902344 48.742188 C 27.492188 48.742188 28.984375 50.324219 29.179688 53.269531 C 29.328125 55.742188 28.488281 57.601562 26.890625 58.367188 Z M 63.84375 51.007812 C 62.9375 51.007812 62.269531 51.367188 61.792969 52.074219 L 61.425781 52.628906 L 61.425781 51.175781 L 59.871094 51.175781 L 59.871094 59.90625 L 61.425781 59.90625 L 61.425781 57.109375 C 61.425781 54.546875 61.449219 54.25 61.816406 53.566406 C 62.3125 52.605469 63.175781 52.136719 63.996094 52.351562 L 64.558594 52.5 L 64.558594 50.984375 Z M 54.730469 50.921875 C 54.429688 50.921875 54.105469 50.964844 53.78125 51.027344 C 51.707031 51.5625 50.539062 53.523438 50.605469 55.550781 C 50.605469 57.238281 50.929688 58.089844 51.769531 58.988281 C 53.457031 60.355469 54.988281 60.460938 57.0625 59.734375 C 57.410156 59.585938 57.796875 59.414062 57.796875 59.414062 L 57.796875 58.046875 L 57.0625 58.433594 C 55.398438 59.160156 54.125 59.160156 53.109375 58.304688 C 52.460938 57.664062 52.179688 56.875 52.050781 56 L 58.316406 56 L 58.316406 54.828125 C 58.316406 52.414062 56.847656 50.898438 54.730469 50.921875 Z M 52.203125 54.761719 C 52.203125 54.761719 52.441406 53.269531 53.28125 52.671875 C 53.695312 52.394531 54.167969 52.242188 54.644531 52.242188 C 55.117188 52.242188 55.574219 52.394531 55.960938 52.691406 C 56.738281 53.289062 56.890625 54.761719 56.890625 54.761719 Z M 14.75 53.183594 C 13.066406 52.179688 12.308594 51.453125 12.417969 50.601562 C 12.675781 48.230469 15.636719 48.550781 17.277344 49.449219 L 17.300781 47.847656 C 17.300781 47.847656 16.390625 47.464844 15.097656 47.441406 C 13.109375 47.421875 11.8125 48.0625 11.207031 49.382812 C 10.324219 51.328125 11.101562 52.796875 13.953125 54.421875 C 15.550781 55.339844 16.261719 56.128906 16.261719 57.003906 C 16.261719 58.796875 14.082031 59.414062 11.8125 58.304688 C 11.339844 58.070312 10.949219 57.878906 10.925781 57.878906 C 10.839844 58.390625 10.882812 59.605469 10.882812 59.605469 C 10.882812 59.605469 11.574219 59.882812 12.613281 60.097656 C 15.203125 60.609375 17.535156 59.414062 17.773438 57.472656 C 17.945312 55.636719 17.277344 54.675781 14.75 53.183594 Z M 77.601562 50.921875 C 77.300781 50.921875 76.976562 50.964844 76.652344 51.027344 C 74.578125 51.5625 73.414062 53.523438 73.476562 55.550781 C 73.476562 57.238281 73.800781 58.089844 74.644531 58.964844 C 76.328125 60.332031 77.863281 60.460938 79.957031 59.714844 C 80.304688 59.5625 80.691406 59.394531 80.691406 59.394531 L 80.691406 58.027344 L 79.957031 58.410156 C 78.273438 59.136719 77.019531 59.136719 76.003906 58.285156 C 75.355469 57.644531 75.078125 56.875 74.945312 55.980469 L 81.1875 55.980469 L 81.1875 54.804688 C 81.1875 52.394531 79.71875 50.878906 77.601562 50.921875 Z M 75.054688 54.742188 C 75.054688 54.742188 75.292969 53.246094 76.132812 52.648438 C 76.546875 52.351562 77.019531 52.222656 77.472656 52.222656 C 77.925781 52.222656 78.402344 52.371094 78.792969 52.671875 C 79.570312 53.269531 79.71875 54.742188 79.71875 54.742188 Z M 46.585938 53.203125 C 44.902344 52.203125 44.167969 51.476562 44.253906 50.621094 C 44.515625 48.253906 47.472656 48.574219 49.113281 49.46875 L 49.136719 47.867188 C 49.136719 47.867188 48.230469 47.484375 46.933594 47.464844 C 44.945312 47.441406 43.648438 48.082031 43.046875 49.40625 C 42.160156 51.347656 42.957031 52.820312 45.789062 54.441406 C 47.386719 55.359375 48.078125 56.148438 48.078125 57.003906 C 48.078125 58.796875 45.894531 59.4375 43.628906 58.304688 C 43.175781 58.070312 42.765625 57.878906 42.742188 57.878906 C 42.65625 58.390625 42.699219 59.605469 42.699219 59.605469 C 42.699219 59.605469 43.390625 59.882812 44.425781 60.097656 C 47.019531 60.609375 49.351562 59.414062 49.589844 57.472656 C 49.785156 55.660156 49.113281 54.699219 46.585938 53.203125 Z M 86.71875 50.984375 C 85.8125 50.984375 85.121094 51.347656 84.667969 52.050781 L 84.300781 52.605469 L 84.300781 51.15625 L 82.742188 51.15625 L 82.742188 59.882812 L 84.300781 59.882812 L 84.300781 57.109375 C 84.300781 54.546875 84.320312 54.25 84.6875 53.566406 C 85.183594 52.605469 86.046875 52.136719 86.871094 52.371094 L 87.429688 52.519531 L 87.429688 51.007812 Z M 34.234375 53.160156 L 34.234375 47.589844 L 32.675781 47.589844 L 32.675781 59.90625 L 39.265625 59.90625 L 39.265625 58.453125 L 34.253906 58.453125 Z M 70.453125 54.890625 L 69.160156 58.199219 L 67.925781 54.867188 L 66.675781 51.175781 L 65.074219 51.175781 C 66.113281 54.078125 67.234375 57.046875 68.378906 59.90625 C 68.878906 59.925781 69.375 59.90625 69.871094 59.90625 L 71.621094 55.574219 L 73.390625 51.15625 L 71.859375 51.15625 C 71.835938 51.175781 71.167969 52.925781 70.453125 54.890625 Z M 37.863281 44.242188 C 38.121094 44.242188 38.316406 44.15625 38.488281 43.984375 C 38.660156 43.8125 38.746094 43.621094 38.746094 43.367188 C 38.746094 43.109375 38.660156 42.917969 38.488281 42.746094 C 38.316406 42.597656 38.121094 42.511719 37.863281 42.511719 C 37.601562 42.511719 37.386719 42.597656 37.234375 42.769531 C 37.0625 42.9375 36.976562 43.152344 36.976562 43.386719 C 36.976562 43.644531 37.0625 43.855469 37.234375 44.007812 C 37.386719 44.15625 37.601562 44.242188 37.863281 44.242188 Z M 37.300781 42.8125 C 37.449219 42.660156 37.625 42.597656 37.863281 42.597656 C 38.078125 42.597656 38.273438 42.660156 38.421875 42.8125 C 38.574219 42.960938 38.660156 43.132812 38.660156 43.367188 C 38.660156 43.578125 38.574219 43.769531 38.421875 43.921875 C 38.273438 44.070312 38.078125 44.132812 37.863281 44.132812 C 37.644531 44.132812 37.449219 44.070312 37.300781 43.921875 C 37.148438 43.769531 37.0625 43.578125 37.0625 43.367188 C 37.082031 43.152344 37.148438 42.960938 37.300781 42.8125 Z M 37.667969 43.453125 L 37.773438 43.453125 C 37.839844 43.453125 37.925781 43.515625 37.96875 43.644531 L 38.097656 43.921875 L 38.292969 43.921875 L 38.140625 43.621094 C 38.078125 43.492188 38.011719 43.429688 37.949219 43.410156 C 38.035156 43.386719 38.097656 43.367188 38.164062 43.300781 C 38.207031 43.257812 38.230469 43.171875 38.230469 43.109375 C 38.230469 43.023438 38.207031 42.960938 38.140625 42.894531 C 38.078125 42.832031 37.96875 42.8125 37.816406 42.8125 L 37.496094 42.8125 L 37.496094 43.921875 L 37.644531 43.921875 Z M 37.667969 42.9375 L 37.816406 42.9375 C 37.925781 42.9375 37.992188 42.960938 38.035156 42.980469 C 38.078125 43.003906 38.078125 43.046875 38.078125 43.132812 C 38.078125 43.257812 37.992188 43.324219 37.839844 43.324219 L 37.667969 43.324219 Z M 11.8125 43.34375 C 11.8125 42.960938 11.792969 42.660156 11.792969 42.492188 C 11.835938 42.683594 11.878906 42.832031 11.921875 42.9375 L 13.433594 46.246094 L 13.691406 46.246094 L 15.203125 42.894531 C 15.246094 42.8125 15.289062 42.660156 15.332031 42.46875 L 15.355469 42.46875 C 15.332031 42.8125 15.3125 43.089844 15.3125 43.324219 L 15.3125 46.246094 L 15.832031 46.246094 L 15.832031 41.894531 L 15.183594 41.894531 L 13.777344 44.945312 C 13.734375 45.074219 13.648438 45.242188 13.5625 45.480469 L 13.542969 45.480469 C 13.519531 45.351562 13.433594 45.179688 13.347656 44.964844 L 11.984375 41.914062 L 11.292969 41.914062 L 11.292969 46.269531 L 11.792969 46.269531 Z M 16.933594 43.367188 L 17.386719 43.367188 L 17.386719 46.078125 L 16.933594 46.078125 Z M 17.148438 42.363281 C 17.234375 42.363281 17.320312 42.339844 17.386719 42.277344 C 17.449219 42.214844 17.492188 42.148438 17.492188 42.042969 C 17.492188 41.957031 17.472656 41.871094 17.386719 41.808594 C 17.320312 41.742188 17.234375 41.722656 17.148438 41.722656 C 17.0625 41.722656 16.976562 41.742188 16.910156 41.808594 C 16.84375 41.871094 16.800781 41.957031 16.800781 42.042969 C 16.800781 42.148438 16.824219 42.214844 16.910156 42.277344 C 16.976562 42.339844 17.0625 42.363281 17.148438 42.363281 Z M 20.539062 46.117188 L 20.539062 45.648438 C 20.300781 45.820312 20.042969 45.925781 19.761719 45.925781 C 19.4375 45.925781 19.179688 45.820312 18.984375 45.605469 C 18.789062 45.394531 18.679688 45.117188 18.679688 44.753906 C 18.679688 44.367188 18.789062 44.070312 18.984375 43.855469 C 19.179688 43.644531 19.460938 43.535156 19.761719 43.535156 C 20.019531 43.535156 20.28125 43.621094 20.515625 43.769531 L 20.515625 43.238281 C 20.300781 43.132812 20.0625 43.089844 19.78125 43.089844 C 19.285156 43.089844 18.875 43.238281 18.59375 43.558594 C 18.3125 43.855469 18.164062 44.285156 18.164062 44.796875 C 18.164062 45.242188 18.292969 45.628906 18.574219 45.90625 C 18.855469 46.203125 19.222656 46.355469 19.652344 46.355469 C 20.019531 46.332031 20.300781 46.269531 20.539062 46.117188 Z M 21.8125 44.6875 C 21.8125 44.328125 21.898438 44.046875 22.050781 43.835938 C 22.203125 43.664062 22.351562 43.558594 22.570312 43.558594 C 22.742188 43.558594 22.871094 43.578125 22.957031 43.664062 L 22.957031 43.152344 C 22.894531 43.132812 22.785156 43.109375 22.65625 43.109375 C 22.484375 43.109375 22.308594 43.171875 22.179688 43.28125 C 22.03125 43.410156 21.898438 43.578125 21.835938 43.8125 L 21.8125 43.8125 L 21.8125 43.171875 L 21.316406 43.171875 L 21.316406 46.289062 L 21.8125 46.289062 Z M 24.707031 46.332031 C 25.183594 46.332031 25.570312 46.183594 25.851562 45.882812 C 26.132812 45.585938 26.285156 45.179688 26.285156 44.6875 C 26.285156 44.175781 26.15625 43.792969 25.894531 43.492188 C 25.636719 43.195312 25.269531 43.066406 24.792969 43.066406 C 24.320312 43.066406 23.929688 43.214844 23.648438 43.472656 C 23.347656 43.769531 23.195312 44.199219 23.195312 44.730469 C 23.195312 45.203125 23.324219 45.585938 23.605469 45.882812 C 23.867188 46.183594 24.234375 46.332031 24.707031 46.332031 Z M 23.996094 43.8125 C 24.1875 43.621094 24.449219 43.515625 24.75 43.515625 C 25.074219 43.515625 25.3125 43.621094 25.507812 43.8125 C 25.679688 44.027344 25.789062 44.328125 25.789062 44.710938 C 25.789062 45.09375 25.703125 45.394531 25.527344 45.585938 C 25.355469 45.796875 25.097656 45.90625 24.773438 45.90625 C 24.449219 45.90625 24.1875 45.796875 23.996094 45.585938 C 23.800781 45.371094 23.714844 45.09375 23.714844 44.710938 C 23.691406 44.328125 23.777344 44.027344 23.996094 43.8125 Z M 28.464844 46.078125 C 28.660156 45.90625 28.769531 45.691406 28.769531 45.4375 C 28.769531 45.203125 28.683594 45.007812 28.53125 44.859375 C 28.402344 44.730469 28.226562 44.625 27.949219 44.519531 C 27.710938 44.410156 27.558594 44.328125 27.472656 44.261719 C 27.386719 44.175781 27.34375 44.089844 27.34375 43.941406 C 27.34375 43.8125 27.386719 43.707031 27.492188 43.644531 C 27.601562 43.558594 27.730469 43.515625 27.90625 43.515625 C 28.183594 43.515625 28.402344 43.578125 28.617188 43.730469 L 28.617188 43.238281 C 28.421875 43.132812 28.183594 43.089844 27.949219 43.089844 C 27.625 43.089844 27.34375 43.171875 27.148438 43.34375 C 26.933594 43.515625 26.847656 43.730469 26.847656 43.984375 C 26.847656 44.21875 26.910156 44.410156 27.039062 44.539062 C 27.148438 44.667969 27.34375 44.773438 27.601562 44.882812 C 27.859375 44.988281 28.035156 45.09375 28.121094 45.179688 C 28.207031 45.265625 28.25 45.351562 28.25 45.480469 C 28.25 45.777344 28.054688 45.925781 27.644531 45.925781 C 27.34375 45.925781 27.0625 45.820312 26.824219 45.628906 L 26.824219 46.160156 C 27.039062 46.289062 27.300781 46.355469 27.601562 46.355469 C 27.96875 46.332031 28.273438 46.246094 28.464844 46.078125 Z M 30.863281 43.089844 C 30.386719 43.089844 30 43.238281 29.71875 43.492188 C 29.417969 43.792969 29.265625 44.21875 29.265625 44.753906 C 29.265625 45.222656 29.394531 45.605469 29.675781 45.90625 C 29.957031 46.203125 30.324219 46.355469 30.796875 46.355469 C 31.273438 46.355469 31.664062 46.203125 31.941406 45.90625 C 32.222656 45.605469 32.375 45.203125 32.375 44.710938 C 32.375 44.199219 32.246094 43.8125 31.988281 43.515625 C 31.707031 43.214844 31.339844 43.089844 30.863281 43.089844 Z M 31.855469 44.710938 C 31.855469 45.09375 31.769531 45.394531 31.597656 45.585938 C 31.425781 45.796875 31.164062 45.90625 30.839844 45.90625 C 30.519531 45.90625 30.257812 45.796875 30.0625 45.585938 C 29.871094 45.371094 29.785156 45.09375 29.785156 44.710938 C 29.785156 44.304688 29.890625 44.007812 30.085938 43.792969 C 30.28125 43.601562 30.539062 43.492188 30.839844 43.492188 C 31.144531 43.492188 31.402344 43.601562 31.574219 43.792969 C 31.769531 44.007812 31.855469 44.304688 31.855469 44.710938 Z M 33.21875 46.269531 L 33.714844 46.269531 L 33.714844 43.578125 L 34.449219 43.578125 L 34.449219 43.152344 L 33.714844 43.152344 L 33.714844 42.683594 C 33.714844 42.257812 33.886719 42.019531 34.234375 42.019531 C 34.363281 42.019531 34.46875 42.042969 34.558594 42.105469 L 34.558594 41.660156 C 34.46875 41.617188 34.339844 41.617188 34.191406 41.617188 C 33.910156 41.617188 33.691406 41.703125 33.519531 41.871094 C 33.304688 42.0625 33.195312 42.320312 33.195312 42.683594 L 33.195312 43.195312 L 32.65625 43.195312 L 32.65625 43.621094 L 33.195312 43.621094 Z M 35.292969 45.414062 C 35.292969 46.011719 35.570312 46.332031 36.113281 46.332031 C 36.304688 46.332031 36.457031 46.3125 36.585938 46.226562 L 36.585938 45.796875 C 36.5 45.863281 36.394531 45.90625 36.261719 45.90625 C 36.089844 45.90625 35.980469 45.863281 35.894531 45.777344 C 35.832031 45.691406 35.789062 45.542969 35.789062 45.328125 L 35.789062 43.578125 L 36.585938 43.578125 L 36.585938 43.152344 L 35.789062 43.152344 L 35.789062 42.234375 C 35.613281 42.296875 35.441406 42.339844 35.292969 42.382812 L 35.292969 43.132812 L 34.75 43.132812 L 34.75 43.558594 L 35.292969 43.558594 Z M 89.394531 51.15625 C 89.222656 51.007812 89.027344 50.921875 88.769531 50.921875 C 88.511719 50.921875 88.292969 51.007812 88.144531 51.175781 C 87.972656 51.347656 87.882812 51.5625 87.882812 51.796875 C 87.882812 52.050781 87.972656 52.242188 88.144531 52.414062 C 88.316406 52.5625 88.53125 52.648438 88.769531 52.648438 C 89.027344 52.648438 89.222656 52.5625 89.394531 52.394531 C 89.570312 52.222656 89.65625 52.03125 89.65625 51.773438 C 89.675781 51.519531 89.570312 51.304688 89.394531 51.15625 Z M 89.332031 52.328125 C 89.179688 52.480469 89.007812 52.542969 88.769531 52.542969 C 88.554688 52.542969 88.359375 52.480469 88.207031 52.328125 C 88.058594 52.179688 87.972656 51.988281 87.972656 51.773438 C 87.972656 51.5625 88.035156 51.367188 88.1875 51.21875 C 88.339844 51.070312 88.511719 51.007812 88.75 51.007812 C 88.964844 51.007812 89.160156 51.070312 89.308594 51.21875 C 89.460938 51.367188 89.546875 51.5625 89.546875 51.773438 C 89.546875 51.988281 89.484375 52.179688 89.332031 52.328125 Z M 88.878906 51.816406 C 88.964844 51.796875 89.027344 51.753906 89.09375 51.710938 C 89.136719 51.667969 89.160156 51.582031 89.160156 51.519531 C 89.160156 51.433594 89.136719 51.367188 89.074219 51.304688 C 89.007812 51.242188 88.898438 51.21875 88.75 51.21875 L 88.425781 51.21875 L 88.425781 52.328125 L 88.574219 52.328125 L 88.574219 51.859375 L 88.683594 51.859375 C 88.75 51.859375 88.8125 51.921875 88.878906 52.050781 L 89.007812 52.328125 L 89.203125 52.328125 L 89.050781 52.03125 C 88.984375 51.902344 88.921875 51.839844 88.878906 51.816406 Z M 88.769531 51.710938 L 88.597656 51.710938 L 88.597656 51.347656 L 88.75 51.347656 C 88.855469 51.347656 88.921875 51.367188 88.964844 51.390625 C 89.007812 51.410156 89.007812 51.453125 89.007812 51.539062 C 88.984375 51.667969 88.921875 51.710938 88.769531 51.710938 Z M 60.625 43.023438 L 60.777344 43.023438 L 60.777344 41.914062 L 61.144531 41.914062 L 61.144531 41.765625 L 60.257812 41.765625 L 60.257812 41.914062 L 60.625 41.914062 Z M 61.46875 42.191406 L 61.46875 41.9375 C 61.46875 42 61.492188 42.042969 61.511719 42.0625 L 61.945312 43.023438 L 62.007812 43.023438 L 62.441406 42.0625 C 62.460938 42.042969 62.460938 42 62.484375 41.9375 L 62.484375 43.023438 L 62.636719 43.023438 L 62.636719 41.765625 L 62.460938 41.765625 L 62.074219 42.640625 C 62.074219 42.660156 62.03125 42.726562 62.007812 42.8125 L 61.988281 42.8125 C 61.988281 42.769531 61.964844 42.726562 61.921875 42.660156 L 61.535156 41.785156 L 61.339844 41.785156 L 61.339844 43.046875 L 61.492188 43.046875 Z M 61.46875 42.191406 "/>
</g>
</svg>
